<mxfile host="app.diagrams.net" modified="2024-02-26T18:37:52.459Z" agent="Mozilla/5.0 (Windows NT 10.0; Win64; x64) AppleWebKit/537.36 (KHTML, like Gecko) Chrome/121.0.0.0 Safari/537.36 Edg/121.0.0.0" version="23.1.7" etag="kA27wfUFK9b4gWjH7qLE" type="github">
  <diagram name="Page-1" id="kg7iMZ742ykFCnVMoKgi">
    <mxGraphModel>
      <root>
        <mxCell id="0" />
        <mxCell id="1" parent="0" />
      </root>
    </mxGraphModel>
  </diagram>
</mxfile>
